# xmcd CD database file
#
# Track frame offsets:
#	150
#	20775
#	44400
#	72788
#	82659
#	104194
#	135943
#	151766
#	164745
#	179718
#	213408
#	236196
#
# Disc length: 3432 seconds
#
# Revision: 0
# Processed by: cddbd v1.5.1PL0 Copyright (c) Steve Scherf et al.
# Submitted via: CDex 1.51
#
DISCID=a80d660c
DTITLE=Stefan Heckel Group - News From The Royal Alpine Music Factor
DYEAR=2004
DGENRE=Jazz
TTITLE0=Chance Of Rain
TTITLE1=Poly Poppers Tune
TTITLE2=Chilling My Softly
TTITLE3=BIT 5
TTITLE4=Devet
TTITLE5=Not A Blues
TTITLE6=Major and Minor
TTITLE7=Lost and Found
TTITLE8=Ballards Ballad
TTITLE9=Good Start
TTITLE10=For Good
TTITLE11=Doing
EXTD=YEAR: 2004
EXTT0=
EXTT1=
EXTT2=
EXTT3=
EXTT4=
EXTT5=
EXTT6=
EXTT7=
EXTT8=
EXTT9=
EXTT10=
EXTT11=
PLAYORDER=
